<svg height="512pt" viewBox="0 -11 512.001 512" width="512pt" xmlns="http://www.w3.org/2000/svg"><path d="m501 245c0 135.3125-109.6875 245-245 245-135.308594 0-245-109.6875-245-245 0-135.308594 109.691406-245 245-245 135.3125 0 245 109.691406 245 245zm0 0" fill="#5dc1d8"/><path d="m501.542969 182.460938c-13.949219-13.945313-36.5625-13.945313-50.507813 0-35.550781 35.550781-79.0625 60.199218-126.480468 72.292968-.21875-.140625-.4375-.28125-.65625-.421875 27.390624-20.621093 45.101562-53.40625 45.101562-90.332031 0-62.40625-50.589844-113-113-113-62.40625 0-113 50.59375-113 113 0 36.925781 17.714844 69.710938 45.105469 90.332031-.21875.140625-.441407.28125-.660157.421875-47.417968-12.09375-90.929687-36.742187-126.476562-72.292968-13.949219-13.945313-36.5625-13.945313-50.507812 0-13.949219 13.949218-13.949219 36.5625 0 50.507812 33.160156 33.160156 71.816406 58.84375 114.90625 76.332031 7.730468 3.136719 15.542968 5.980469 23.425781 8.542969v147.5c32.382812 15.789062 68.757812 24.65625 107.207031 24.65625 38.453125 0 74.824219-8.867188 107.207031-24.65625v-147.503906c7.886719-2.558594 15.695313-5.40625 23.425781-8.542969 43.089844-17.488281 81.75-43.167969 114.910157-76.328125 13.945312-13.949219 13.945312-36.5625 0-50.507812zm-352.460938 135.476562c.035157.011719.066407.023438.101563.035156-.035156.371094-.070313.3125-.101563-.035156zm213.738281.03125c.039063-.011719.074219-.023438.113282-.039062-.035156.410156-.074219.488281-.113282.039062zm0 0" fill="#ef8318"/><path d="m158.875 441.902344-10.082031 15v8.441406c5.636719 2.746094 11.394531 5.269531 17.261719 7.585938v-20.347657zm0 0" fill="#db722c"/><path d="m148.792969 430.007812 1.066406-1.585937c2.152344-3.195313 5.433594-5.03125 9.015625-5.03125 2.675781 0 5.183594 1.027344 7.179688 2.875v-114.160156c.171874-.632813.292968-1.308594.359374-2.019531.457032-4.863282-2.507812-9.398438-7.136718-10.933594-.078125-.027344-.390625-.132813-.472656-.15625-8.046876-2.613282-16.074219-5.542969-23.863282-8.703125-43.882812-17.8125-83.261718-43.972657-117.042968-77.753907-8.980469-8.980468-10.28125-22.765624-3.925782-33.148437-1.21875.9375-2.394531 1.953125-3.511718 3.070313-13.945313 13.945312-13.945313 36.5625 0 50.507812 33.160156 33.160156 71.820312 58.839844 114.90625 76.328125 7.730468 3.140625 15.542968 5.984375 23.425781 8.542969zm.390625-112.039062c-.035156.375-.070313.316406-.101563-.03125.035157.011719.066407.023438.101563.03125zm0 0" fill="#db722c"/><path d="m67.414062 197.65625 2.953126 12.960938-12.960938-2.953126c-3.84375-.875-7.519531.09375-10.085938 2.65625-2.5625 2.5625-3.53125 6.238282-2.65625 10.085938l2.953126 12.960938-12.960938-2.953126c-3.84375-.875-7.523438.09375-10.085938 2.65625-2.566406 2.566407-3.535156 6.242188-2.65625 10.085938l.214844.941406c6.167969 5.636719 12.515625 11.019532 19.023438 16.164063-.042969-.242188-.066406-.480469-.125-.722657l-2.953125-12.960937 12.960937 2.949219c3.84375.875 7.519532-.089844 10.085938-2.65625 2.566406-2.5625 3.535156-6.238282 2.660156-10.085938l-2.953125-12.960937 12.960937 2.953125c3.847657.875 7.523438-.09375 10.085938-2.65625s3.53125-6.238282 2.65625-10.085938l-2.488281-10.917968c-5.332031-4.269532-10.53125-8.753907-15.582031-13.445313-1.320313 2.300781-1.703126 5.09375-1.046876 7.984375zm0 0" fill="#ffe2b8"/><path d="m238.808594 293.839844c0-3.648438 1.152344-7.027344 3.097656-9.8125l-33.246094-14.535156c-5.039062-2.207032-9.160156.492187-9.160156 5.992187v36.714844c0 5.5 4.121094 8.195312 9.160156 5.992187l33.246094-14.539062c-1.945312-2.785156-3.097656-6.164063-3.097656-9.8125zm0 0" fill="#2bb381"/><path d="m303.339844 269.488281-33.242188 14.539063c1.945313 2.785156 3.09375 6.164062 3.09375 9.8125 0 3.648437-1.148437 7.027344-3.09375 9.8125l33.242188 14.539062c5.039062 2.203125 9.164062-.496094 9.164062-5.996094v-36.710937c0-5.5-4.125-8.199219-9.164062-5.996094zm0 0" fill="#2bb381"/><path d="m211.996094 312.195312v-36.710937c0-1.632813.371094-3.007813 1.011718-4.09375l-4.347656-1.902344c-5.039062-2.203125-9.160156.496094-9.160156 5.996094v36.710937c0 5.5 4.121094 8.199219 9.160156 5.996094l4.347656-1.902344c-.640624-1.082031-1.011718-2.460937-1.011718-4.09375zm0 0" fill="#159e97"/><path d="m274.191406 293.839844c0 10.046875-8.144531 18.191406-18.191406 18.191406s-18.1875-8.144531-18.1875-18.191406c0-10.042969 8.140625-18.1875 18.1875-18.1875s18.191406 8.144531 18.191406 18.1875zm0 0" fill="#60d882"/><path d="m250 293.839844c0-7.902344 5.054688-14.609375 12.097656-17.121094-1.910156-.679688-3.953125-1.066406-6.097656-1.066406-10.042969 0-18.1875 8.144531-18.1875 18.1875 0 10.046875 8.144531 18.191406 18.1875 18.191406 2.144531 0 4.1875-.390625 6.097656-1.070312-7.042968-2.507813-12.097656-9.214844-12.097656-17.121094zm0 0" fill="#37c47a"/><path d="m271.292969 339.292969c0 8.445312-6.847657 15.292969-15.292969 15.292969s-15.292969-6.847657-15.292969-15.292969c0-8.445313 6.847657-15.292969 15.292969-15.292969s15.292969 6.847656 15.292969 15.292969zm0 0" fill="#ea2a3d"/><path d="m253 339.292969c0-6.257813 3.765625-11.628907 9.148438-13.996094-1.882813-.828125-3.960938-1.296875-6.148438-1.296875-8.445312 0-15.292969 6.847656-15.292969 15.292969 0 8.445312 6.847657 15.292969 15.292969 15.292969 2.1875 0 4.265625-.464844 6.148438-1.292969-5.382813-2.371094-9.148438-7.742188-9.148438-14zm0 0" fill="#b7092b"/><path d="m229.148438 144.292969c0 8.445312-6.847657 15.292969-15.292969 15.292969-8.449219 0-15.292969-6.847657-15.292969-15.292969 0-8.445313 6.84375-15.292969 15.292969-15.292969 8.445312 0 15.292969 6.847656 15.292969 15.292969zm0 0" fill="#ffe2b8"/><path d="m313.441406 144.292969c0 8.445312-6.847656 15.292969-15.292968 15.292969-8.449219 0-15.292969-6.847657-15.292969-15.292969 0-8.445313 6.84375-15.292969 15.292969-15.292969 8.445312 0 15.292968 6.847656 15.292968 15.292969zm0 0" fill="#ffe2b8"/><path d="m271.292969 385.707031c0 8.449219-6.847657 15.292969-15.292969 15.292969s-15.292969-6.84375-15.292969-15.292969c0-8.445312 6.847657-15.292969 15.292969-15.292969s15.292969 6.847657 15.292969 15.292969zm0 0" fill="#ea2a3d"/><path d="m253 385.707031c0-6.257812 3.765625-11.628906 9.148438-13.996093-1.882813-.828126-3.960938-1.292969-6.148438-1.292969-8.445312 0-15.292969 6.84375-15.292969 15.289062 0 8.445313 6.847657 15.292969 15.292969 15.292969 2.1875 0 4.265625-.464844 6.148438-1.292969-5.382813-2.367187-9.148438-7.742187-9.148438-14zm0 0" fill="#b7092b"/><path d="m271.292969 177.292969c0 8.445312-6.847657 15.292969-15.292969 15.292969s-15.292969-6.847657-15.292969-15.292969c0-8.445313 6.847657-15.292969 15.292969-15.292969s15.292969 6.847656 15.292969 15.292969zm0 0" fill="#60d882"/><path d="m253 177.292969c0-6.257813 3.765625-11.628907 9.148438-13.996094-1.882813-.828125-3.960938-1.296875-6.148438-1.296875-8.445312 0-15.292969 6.847656-15.292969 15.292969 0 8.445312 6.847657 15.292969 15.292969 15.292969 2.1875 0 4.265625-.46875 6.148438-1.296876-5.382813-2.367187-9.148438-7.738281-9.148438-13.996093zm0 0" fill="#37c47a"/><path d="m453.476562 136c-2.628906 0-5.246093-.644531-7.570312-1.867188l-23.324219-12.261718-23.320312 12.261718c-2.328125 1.222657-4.945313 1.867188-7.574219 1.867188-3.460938 0-6.765625-1.074219-9.566406-3.105469-5.046875-3.667969-7.527344-9.769531-6.476563-15.917969l4.457031-25.972656-18.867187-18.390625c-4.46875-4.355469-6.046875-10.746093-4.117187-16.683593 1.925781-5.933594 6.960937-10.175782 13.136718-11.074219l26.074219-3.789063 11.660156-23.628906c2.761719-5.59375 8.355469-9.070312 14.59375-9.070312 6.242188 0 11.835938 3.476562 14.597657 9.070312l11.660156 23.628906 26.074218 3.789063c6.171876.898437 11.207032 5.140625 13.136719 11.074219 1.929688 5.933593.351563 12.328124-4.117187 16.683593l-18.867188 18.390625 4.453125 25.972656c1.054688 6.148438-1.425781 12.25-6.472656 15.917969-2.800781 2.03125-6.109375 3.105469-9.570313 3.105469zm0 0" fill="#db722c"/><path d="m453.476562 136c-2.628906 0-5.246093-.644531-7.570312-1.867188l-23.324219-12.261718-23.320312 12.261718c-2.328125 1.222657-4.945313 1.867188-7.574219 1.867188-3.460938 0-6.765625-1.074219-9.566406-3.105469-5.046875-3.667969-7.527344-9.769531-6.476563-15.917969l4.457031-25.972656-18.867187-18.390625c-4.46875-4.355469-6.046875-10.746093-4.117187-16.683593 1.925781-5.933594 6.960937-10.175782 13.136718-11.074219l26.074219-3.789063 11.660156-23.628906c2.761719-5.59375 8.355469-9.070312 14.59375-9.070312 6.242188 0 11.835938 3.476562 14.597657 9.070312l11.660156 23.628906 26.074218 3.789063c6.171876.898437 11.207032 5.140625 13.136719 11.074219 1.929688 5.933593.351563 12.328124-4.117187 16.683593l-18.867188 18.390625 4.453125 25.972656c1.054688 6.148438-1.425781 12.25-6.472656 15.917969-2.800781 2.03125-6.109375 3.105469-9.570313 3.105469zm0 0" fill="#ef8318"/><path d="m406.816406 128.527344c-5.050781-3.667969-7.53125-9.769532-6.476562-15.917969l4.453125-25.972656-18.867188-18.390625c-4.46875-4.351563-6.042969-10.746094-4.117187-16.679688 1.398437-4.304687 4.433594-7.707031 8.34375-9.601562l-19.898438 2.890625c-6.175781.898437-11.210937 5.140625-13.140625 11.074219-1.925781 5.9375-.347656 12.328124 4.121094 16.683593l18.867187 18.390625-4.457031 25.972656c-1.054687 6.148438 1.429688 12.25 6.476563 15.917969 2.796875 2.03125 6.105468 3.105469 9.566406 3.105469 2.625 0 5.246094-.644531 7.570312-1.867188l8.953126-4.707031c-.476563-.277343-.945313-.570312-1.394532-.898437zm0 0" fill="#db722c"/><path d="m447.722656 119.308594c-1.191406 0-2.390625-.285156-3.488281-.859375l-16.949219-8.914063c-2.890625-1.519531-6.519531-1.519531-9.40625 0l-16.949218 8.914063c-2.527344 1.328125-5.589844 1.105469-7.898438-.574219-2.308594-1.675781-3.46875-4.519531-2.984375-7.335938l3.238281-18.871093c.5625-3.28125-.523437-6.625-2.90625-8.945313l-13.710937-13.367187c-2.046875-1.992188-2.78125-4.972657-1.898438-7.6875.882813-2.714844 3.230469-4.695313 6.054688-5.105469l18.949219-2.75c3.292968-.480469 6.136718-2.546875 7.609374-5.53125l8.476563-17.171875c1.261719-2.558594 3.871094-4.179687 6.726563-4.179687 2.851562 0 5.460937 1.621093 6.722656 4.179687l8.476562 17.171875c1.472656 2.984375 4.316406 5.050781 7.609375 5.53125l18.949219 2.75c2.828125.410156 5.175781 2.390625 6.058594 5.105469.882812 2.714843.144531 5.695312-1.898438 7.6875l-13.714844 13.367187c-2.382812 2.320313-3.46875 5.667969-2.90625 8.945313l3.140626 18.316406c.148437.585937.226562 1.195313.226562 1.824219 0 4.140625-3.359375 7.5-7.5 7.5-.007812 0-.019531 0-.027344 0zm-49.707031-50.085938 2.832031 2.757813c5.917969 5.769531 8.617188 14.078125 7.21875 22.222656l-.667968 3.894531 3.5-1.839844c3.589843-1.886718 7.628906-2.882812 11.683593-2.882812 4.054688 0 8.09375.996094 11.683594 2.882812l3.5 1.839844-.667969-3.894531c-1.398437-8.148437 1.300782-16.453125 7.21875-22.222656l2.832032-2.761719-3.914063-.566406c-8.179687-1.1875-15.246094-6.324219-18.902344-13.734375l-1.75-3.542969-1.746093 3.542969c-3.660157 7.414062-10.726563 12.546875-18.902344 13.734375zm0 0" fill="#ffe2b8"/><path d="m97.726562 120.980469c-2.925781 0-5.679687-1.140625-7.746093-3.210938l-49.132813-49.132812c-14.300781-14.304688-14.304687-37.582031 0-51.890625 6.933594-6.929688 16.144532-10.746094 25.945313-10.746094s19.015625 3.816406 25.945312 10.75l4.988281 4.988281 4.988282-4.992187c6.933594-6.929688 16.144531-10.746094 25.945312-10.746094 9.800782 0 19.015625 3.816406 25.945313 10.746094 14.304687 14.308594 14.304687 37.585937.003906 51.890625l-49.136719 49.132812c-2.066406 2.070313-4.820312 3.210938-7.746094 3.210938zm0 0" fill="#ef8318"/><path d="m110.390625 110c-2.925781 0-5.675781-1.140625-7.742187-3.207031l-49.132813-49.132813c-12.914063-12.917968-14.167969-33.136718-3.769531-47.472656-3.238282 1.703125-6.238282 3.898438-8.898438 6.558594-14.304687 14.308594-14.300781 37.585937 0 51.890625l49.132813 49.132812c2.066406 2.070313 4.820312 3.207031 7.746093 3.207031 2.925782 0 5.679688-1.140624 7.746094-3.207031l8.308594-8.3125c-1.078125.355469-2.21875.542969-3.390625.542969zm0 0" fill="#db722c"/><g fill="#ffe2b8"><path d="m97.726562 102.035156c-1.917968 0-3.839843-.730468-5.304687-2.195312l-41.386719-41.390625c-8.6875-8.6875-8.6875-22.828125 0-31.519531 4.210938-4.207032 9.804688-6.523438 15.757813-6.523438s11.550781 2.316406 15.761719 6.527344l4.984374 4.984375c2.722657 2.722656 6.339844 4.222656 10.1875 4.222656 3.847657 0 7.464844-1.5 10.1875-4.21875l4.988282-4.988281c4.269531-4.269532 9.71875-6.527344 15.761718-6.527344 5.953126 0 11.550782 2.316406 15.757813 6.527344 4.203125 4.203125 6.519531 9.800781 6.519531 15.757812 0 5.957032-2.3125 11.554688-6.519531 15.757813l-41.390625 41.390625c-1.464844 1.464844-3.386719 2.195312-5.304688 2.195312zm-30.933593-66.628906c-2.03125 0-3.714844.699219-5.148438 2.132812-2.84375 2.839844-2.84375 7.464844 0 10.304688l36.082031 36.085938 36.089844-36.085938c1.371094-1.371094 2.125-3.199219 2.125-5.152344 0-1.949218-.753906-3.78125-2.128906-5.152344-1.433594-1.4375-3.117188-2.132812-5.148438-2.132812s-3.71875.699219-5.152343 2.132812l-4.992188 4.992188c-5.554687 5.550781-12.9375 8.609375-20.789062 8.609375-7.859375 0-15.242188-3.058594-20.796875-8.613281l-4.984375-4.988282c-1.4375-1.433593-3.125-2.132812-5.15625-2.132812zm0 0"/><path d="m494.402344 239.894531c-.113282-2.621093-1.113282-5.019531-2.945313-6.847656-2.5625-2.566406-6.238281-3.53125-10.085937-2.65625l-12.960938 2.953125 2.953125-12.964844c.878907-3.84375-.09375-7.519531-2.65625-10.085937-2.566406-2.5625-6.238281-3.53125-10.085937-2.652344l-12.960938 2.953125 2.953125-12.964844c.875-3.847656-.09375-7.523437-2.65625-10.085937-.027343-.023438-.054687-.042969-.078125-.066407-5.214844 4.953126-10.582031 9.6875-16.105468 14.183594l2.675781-.609375-2.953125 12.964844c-.875 3.84375.09375 7.519531 2.65625 10.082031s6.242187 3.535156 10.085937 2.65625l12.964844-2.953125-2.953125 12.964844c-.878906 3.84375.089844 7.519531 2.65625 10.082031 2.5625 2.566406 6.238281 3.535156 10.085938 2.65625l12.960937-2.949218-2.238281 9.820312c6.402344-5.246094 12.628906-10.746094 18.6875-16.480469zm0 0"/><path d="m67.414062 197.65625 2.953126 12.960938-12.960938-2.953126c-3.84375-.875-7.519531.09375-10.085938 2.65625-2.5625 2.5625-3.53125 6.238282-2.65625 10.085938l2.953126 12.960938-12.960938-2.953126c-3.84375-.875-7.523438.09375-10.085938 2.65625-2.566406 2.566407-3.535156 6.242188-2.65625 10.085938l.214844.941406c6.167969 5.636719 12.515625 11.019532 19.023438 16.164063-.042969-.242188-.066406-.480469-.125-.722657l-2.953125-12.960937 12.960937 2.949219c3.84375.875 7.519532-.089844 10.085938-2.65625 2.566406-2.5625 3.535156-6.238282 2.660156-10.085938l-2.953125-12.960937 12.960937 2.953125c3.847657.875 7.523438-.09375 10.085938-2.65625s3.53125-6.238282 2.65625-10.085938l-2.488281-10.917968c-5.332031-4.269532-10.53125-8.753907-15.582031-13.445313-1.320313 2.300781-1.703126 5.09375-1.046876 7.984375zm0 0"/><path d="m363.207031 430.007812-1.066406-1.585937c-2.148437-3.195313-5.433594-5.03125-9.011719-5.03125-3.582031 0-6.867187 1.832031-9.015625 5.03125l-10.410156 15.492187-10.414063-15.492187c-2.148437-3.195313-5.433593-5.03125-9.011718-5.03125-3.582032 0-6.867188 1.832031-9.015625 5.03125l-10.410157 15.492187-10.410156-15.492187c-2.148437-3.195313-5.433594-5.03125-9.015625-5.03125-3.578125 0-6.863281 1.832031-9.015625 5.03125l-10.410156 15.492187-10.410156-15.496093c-2.148438-3.195313-5.433594-5.027344-9.015625-5.027344-3.578125 0-6.863281 1.832031-9.011719 5.03125l-10.414062 15.492187-10.410157-15.496093c-2.148437-3.195313-5.433593-5.027344-9.011719-5.027344-3.582031 0-6.867187 1.832031-9.015624 5.03125l-10.410157 15.492187-10.414062-15.496093c-2.148438-3.195313-5.433594-5.027344-9.011719-5.027344-3.582031 0-6.867188 1.832031-9.015625 5.03125l-1.066406 1.585937v26.894532l10.078125-15.003906 10.414062 15.496093c2.148438 3.195313 5.433594 5.027344 9.011719 5.027344 3.582031 0 6.867187-1.832031 9.015625-5.027344l10.410156-15.496093 10.414063 15.496093c2.144531 3.195313 5.433593 5.027344 9.011719 5.027344 3.582031 0 6.867187-1.832031 9.015624-5.027344l10.410157-15.496093 10.410156 15.496093c2.148437 3.195313 5.4375 5.027344 9.015625 5.027344s6.863281-1.832031 9.015625-5.027344l10.410156-15.496093 10.410157 15.496093c2.148437 3.195313 5.433593 5.027344 9.015624 5.027344 3.578126 0 6.863282-1.832031 9.015626-5.027344l10.410156-15.496093 10.410156 15.496093c2.148438 3.195313 5.433594 5.027344 9.015625 5.027344 3.578125 0 6.863281-1.832031 9.015625-5.027344l10.410156-15.496093 10.078125 15.003906zm0 0"/></g><path d="m197.5 179c0 11.597656-9.402344 21-21 21s-21-9.402344-21-21 9.402344-21 21-21 21 9.402344 21 21zm0 0" fill="#f24976"/><path d="m356.5 179c0 11.597656-9.402344 21-21 21s-21-9.402344-21-21 9.402344-21 21-21 21 9.402344 21 21zm0 0" fill="#f24976"/><path d="m256 244.5c-24.265625 0-45.164062-17.285156-49.691406-41.097656-.773438-4.070313 1.898437-7.996094 5.96875-8.769532 4.0625-.769531 7.992187 1.898438 8.769531 5.96875 3.179687 16.746094 17.882813 28.898438 34.953125 28.898438 17.074219 0 31.773438-12.152344 34.957031-28.898438.773438-4.070312 4.707031-6.742187 8.769531-5.96875 4.070313.773438 6.742188 4.699219 5.96875 8.769532-4.527343 23.8125-25.429687 41.097656-49.695312 41.097656zm0 0" fill="#ffe2b8"/></svg>